<?xml version="1.0" standalone="no"?>
<!DOCTYPE svg PUBLIC "-//W3C//DTD SVG 20010904//EN"
 "http://www.w3.org/TR/2001/REC-SVG-20010904/DTD/svg10.dtd">
<svg version="1.0" xmlns="http://www.w3.org/2000/svg"
 width="226.000000pt" height="227.000000pt" viewBox="0 0 226.000000 227.000000"
 preserveAspectRatio="xMidYMid meet">

<g transform="translate(0.000000,227.000000) scale(0.100000,-0.100000)"
fill="#000000" stroke="none">
<path d="M700 2087 c-28 -14 -50 -51 -50 -84 0 -22 -4 -23 -75 -23 l-75 0 0
30 c0 42 -39 80 -83 80 -40 0 -74 -31 -83 -78 -5 -27 -11 -32 -35 -32 -15 0
-41 -11 -56 -24 l-28 -24 -3 -832 -2 -831 29 -30 29 -29 694 0 c540 0 698 3
710 13 9 6 18 25 20 41 3 24 11 31 56 48 47 18 53 18 68 4 31 -32 66 -20 132
47 65 65 76 95 48 132 -20 27 17 115 48 115 12 0 32 9 44 20 19 18 22 31 22
110 0 99 -15 130 -64 130 -19 0 -27 9 -41 46 -16 44 -17 49 -1 74 25 43 20 57
-41 122 -72 75 -97 86 -134 59 l-27 -20 -51 21 c-44 19 -51 26 -51 49 0 38
-33 59 -92 59 l-48 0 0 321 0 321 -29 29 c-20 19 -40 29 -60 29 -28 0 -31 3
-31 29 0 17 -10 42 -23 56 -49 57 -147 20 -147 -56 l0 -29 -70 0 -70 0 0 29
c0 17 -10 42 -24 57 -49 58 -146 20 -146 -57 l0 -29 -70 0 -70 0 0 29 c0 59
-69 105 -120 78z m690 -166 c0 -87 -3 -111 -16 -122 -11 -9 -20 -10 -32 -2
-25 15 -30 222 -6 240 12 9 22 9 35 2 17 -9 19 -23 19 -118z m-945 -6 c0 -116
-1 -120 -22 -123 -13 -2 -25 4 -31 15 -11 20 -8 205 3 223 4 6 17 10 28 8 21
-3 22 -8 22 -123z m320 6 c0 -95 -3 -116 -17 -124 -12 -8 -21 -7 -32 2 -13 11
-16 34 -16 111 0 119 4 132 39 128 l26 -3 0 -114z m310 97 c3 -13 5 -65 3
-117 -2 -75 -6 -96 -20 -104 -12 -8 -21 -7 -32 2 -13 11 -16 35 -16 121 0 58
3 110 7 113 16 16 53 6 58 -15z m-745 -142 c0 -64 16 -113 40 -126 32 -17 82
-11 107 12 20 19 23 31 23 95 l0 73 75 0 75 0 0 -64 c0 -55 4 -69 26 -95 33
-40 83 -43 119 -6 22 21 25 33 25 95 l0 70 70 0 70 0 0 -69 c0 -58 3 -72 25
-95 35 -38 85 -36 119 5 22 26 26 40 26 95 l0 64 70 0 70 0 0 -61 c0 -88 27
-128 85 -128 58 0 85 40 85 128 0 58 1 61 25 61 14 0 29 -8 35 -19 6 -12 10
-133 10 -323 l0 -303 -30 -17 c-21 -12 -30 -25 -30 -43 0 -21 -8 -30 -46 -46
-42 -19 -47 -19 -63 -5 -35 31 -70 20 -137 -44 l-62 -60 -386 0 c-256 0 -387
-3 -391 -10 -4 -6 -1 -17 5 -25 11 -13 72 -15 390 -15 352 0 378 -1 393 -18
16 -17 15 -22 -5 -70 -19 -44 -26 -52 -49 -52 -38 0 -53 -24 -59 -94 l-5 -61
-330 -3 c-189 -1 -333 -6 -339 -12 -6 -6 -4 -15 4 -25 11 -13 57 -15 339 -15
314 0 327 -1 344 -20 9 -11 28 -20 42 -20 16 0 28 -7 31 -17 3 -10 12 -33 20
-51 12 -29 12 -35 -5 -63 -11 -18 -17 -39 -13 -48 10 -28 96 -122 125 -137 26
-14 31 -13 59 4 30 19 31 19 79 -2 31 -13 49 -27 49 -38 0 -17 -34 -18 -580
-18 -562 0 -580 1 -590 19 -7 13 -10 287 -10 820 0 714 2 801 16 815 8 9 24
16 35 16 16 0 19 -7 19 -54z m1318 -677 c4 -34 23 -49 96 -79 58 -23 59 -23
93 -5 l34 19 46 -46 46 -46 -17 -37 c-17 -36 -17 -37 10 -101 30 -71 38 -81
74 -86 24 -3 25 -7 28 -76 3 -76 4 -75 -48 -86 -19 -4 -31 -20 -53 -68 -32
-73 -33 -85 -11 -117 16 -23 15 -24 -33 -73 l-49 -49 -31 17 c-29 17 -33 17
-89 -1 -65 -22 -104 -53 -104 -85 0 -18 -6 -20 -75 -20 l-75 0 0 28 c0 36 -18
51 -94 82 -57 23 -61 23 -90 6 l-30 -17 -48 49 -49 48 17 31 c17 29 17 33 -1
89 -22 65 -53 104 -85 104 -18 0 -20 6 -20 75 l0 75 28 0 c33 0 53 20 72 70 7
19 17 39 22 45 14 15 9 57 -9 77 -16 18 -14 21 32 68 54 55 59 57 81 35 21
-20 53 -19 111 5 54 24 73 43 73 77 0 23 2 24 73 21 70 -3 72 -4 75 -29z"/>
<path d="M374 1376 c-3 -8 -3 -20 1 -26 4 -7 173 -10 521 -10 l515 0 -3 23 -3
22 -513 3 c-442 2 -513 0 -518 -12z"/>
<path d="M1510 872 c-19 -9 -45 -33 -58 -52 -20 -29 -23 -44 -20 -88 4 -45 10
-59 41 -89 30 -31 44 -37 89 -41 44 -3 59 0 88 20 151 101 22 332 -140 250z
m97 -43 c39 -13 69 -66 59 -103 -19 -76 -103 -101 -157 -47 -46 47 -38 115 19
145 33 18 41 19 79 5z"/>
</g>
</svg>
