<?xml version="1.0" standalone="no"?>
<!DOCTYPE svg PUBLIC "-//W3C//DTD SVG 20010904//EN"
 "http://www.w3.org/TR/2001/REC-SVG-20010904/DTD/svg10.dtd">
<svg version="1.0" xmlns="http://www.w3.org/2000/svg"
 width="1600.000000pt" height="1200.000000pt" viewBox="0 0 1600.000000 1200.000000"
 preserveAspectRatio="xMidYMid meet">

<g transform="translate(0.000000,1200.000000) scale(0.100000,-0.100000)"
fill="#000000" stroke="none">
<path d="M7540 10823 c-1078 -81 -2078 -490 -2895 -1183 -144 -122 -382 -355
-509 -500 -645 -729 -1067 -1645 -1201 -2603 -59 -418 -62 -904 -9 -1322 121
-965 524 -1875 1161 -2620 214 -249 515 -532 787 -737 726 -548 1538 -870
2481 -984 214 -26 841 -27 1064 -1 931 107 1756 433 2486 984 444 335 832 745
1140 1203 433 645 701 1350 804 2115 31 229 41 395 41 674 0 547 -78 1040
-245 1546 -306 927 -866 1731 -1640 2352 -772 618 -1731 994 -2739 1073 -117
9 -617 11 -726 3z m870 -407 c714 -87 1350 -311 1950 -686 607 -379 1162 -956
1525 -1585 322 -558 508 -1122 592 -1795 26 -207 26 -811 0 -1020 -130 -1062
-563 -1969 -1296 -2714 -592 -602 -1319 -1023 -2126 -1231 -406 -104 -733
-145 -1165 -145 -424 0 -757 41 -1145 140 -598 152 -1138 413 -1641 791 -599
450 -1105 1078 -1411 1754 -205 451 -325 883 -390 1405 -14 116 -18 219 -18
510 0 392 8 498 61 800 161 915 593 1755 1242 2414 368 373 756 659 1202 885
557 283 1107 436 1770 495 119 10 721 -2 850 -18z"/>
<path d="M5420 8365 l0 -405 55 0 55 0 0 195 0 195 180 0 180 0 0 50 0 50
-180 0 -180 0 0 110 0 110 188 2 187 3 0 45 0 45 -242 3 -243 2 0 -405z"/>
<path d="M5990 8720 l0 -50 60 0 60 0 0 50 0 50 -60 0 -60 0 0 -50z"/>
<path d="M6000 8265 l0 -305 50 0 50 0 0 305 0 305 -50 0 -50 0 0 -305z"/>
<path d="M6212 8528 l3 -43 148 -5 148 -5 -156 -219 c-135 -192 -155 -224
-155 -258 l0 -38 223 2 222 3 0 40 0 40 -157 3 c-87 1 -158 4 -158 7 0 2 70
102 155 222 133 188 155 223 155 256 l0 37 -216 0 -215 0 3 -42z"/>
<path d="M6712 8528 l3 -43 148 -5 148 -5 -156 -219 c-135 -192 -155 -224
-155 -258 l0 -38 223 2 222 3 0 40 0 40 -157 3 c-87 1 -158 4 -158 7 0 2 70
102 155 222 133 188 155 223 155 256 l0 37 -216 0 -215 0 3 -42z"/>
<path d="M9598 8488 c-22 -7 -28 -16 -28 -39 0 -33 5 -34 40 -14 34 19 105 19
124 -1 47 -46 6 -141 -109 -254 -44 -44 -55 -61 -55 -87 l0 -33 130 0 130 0 0
25 0 25 -100 0 c-55 0 -100 1 -100 3 0 1 33 37 74 79 85 90 106 128 106 195 0
51 -18 82 -57 102 -26 13 -118 13 -155 -1z"/>
<path d="M9918 8488 c-22 -7 -28 -16 -28 -39 0 -34 1 -34 41 -13 18 9 49 14
77 12 39 -2 49 -8 62 -30 23 -42 -1 -80 -58 -92 -34 -8 -42 -14 -42 -33 0 -19
5 -23 33 -23 66 0 99 -53 72 -118 -23 -54 -92 -65 -167 -26 -28 14 -28 14 -28
-16 0 -24 6 -33 27 -41 127 -48 233 8 233 123 0 49 -23 87 -60 100 -10 3 -4
13 20 35 29 26 35 38 35 73 0 35 -6 47 -33 71 -29 26 -39 29 -95 28 -34 0 -74
-5 -89 -11z"/>
<path d="M7280 8040 l0 -80 65 0 66 0 -3 78 -3 77 -62 3 -63 3 0 -81z"/>
<path d="M7610 8040 l0 -80 65 0 65 0 0 80 0 80 -65 0 -65 0 0 -80z"/>
<path d="M7947 8113 c-4 -3 -7 -39 -7 -80 l0 -73 65 0 65 0 0 80 0 80 -58 0
c-32 0 -62 -3 -65 -7z"/>
<path d="M4697 6605 l-187 -216 0 -59 0 -60 183 -2 182 -3 3 -142 3 -143 49 0
49 0 3 143 3 142 48 3 47 3 0 45 0 44 -50 0 -50 0 0 230 0 230 -48 0 -48 0
-187 -215z m180 -242 c-3 -2 -65 -2 -140 -1 l-136 3 137 159 137 158 3 -157
c1 -87 1 -160 -1 -162z"/>
<path d="M11425 6476 c-48 -21 -70 -53 -70 -101 0 -34 6 -50 28 -73 l28 -29
-25 -16 c-30 -20 -50 -78 -42 -122 9 -44 66 -95 109 -96 111 -4 167 40 167
131 0 35 -6 48 -34 74 l-33 32 28 32 c52 58 34 138 -37 168 -41 17 -80 17
-119 0z m84 -37 c40 -14 53 -45 40 -92 -15 -56 -31 -63 -81 -35 -69 38 -77 95
-17 125 13 7 24 13 25 13 1 0 16 -5 33 -11z m-16 -195 c54 -27 67 -44 67 -86
0 -49 -28 -78 -74 -78 -54 0 -81 29 -81 88 0 35 6 56 19 71 23 25 28 26 69 5z"/>
<path d="M11050 6370 l0 -110 70 2 c78 1 104 -13 113 -59 7 -36 -11 -91 -33
-103 -27 -14 -85 -12 -125 4 l-35 15 0 -30 c0 -37 27 -49 111 -49 53 0 63 3
96 34 34 31 37 39 41 100 4 64 3 67 -31 101 -32 32 -40 35 -91 35 l-56 0 0 60
0 60 90 0 c89 0 90 0 90 25 l0 25 -120 0 -120 0 0 -110z"/>
<path d="M9184 6201 c-46 -12 -54 -19 -54 -52 0 -27 2 -29 21 -18 96 51 186
11 150 -67 -7 -17 -25 -28 -56 -36 -37 -10 -45 -16 -43 -33 2 -15 13 -21 47
-26 26 -3 50 -13 58 -25 20 -27 10 -94 -17 -116 -27 -22 -88 -23 -137 -3 -45
19 -43 20 -43 -14 0 -24 6 -31 31 -40 53 -18 140 -14 177 9 34 21 62 71 62
111 0 37 -30 85 -63 102 -19 9 -25 16 -15 16 23 1 68 58 68 86 0 37 -17 73
-43 89 -29 19 -101 28 -143 17z"/>
<path d="M8920 6186 c0 -20 -39 -46 -67 -46 -16 0 -23 -6 -23 -20 0 -17 7 -20
40 -20 l40 0 0 -145 0 -145 -41 0 c-36 0 -40 -2 -37 -22 3 -22 8 -23 106 -26
l102 -3 0 26 c0 22 -4 25 -35 25 l-35 0 0 195 0 195 -25 0 c-15 0 -25 -6 -25
-14z"/>
<path d="M5972 4265 c-89 -25 -92 -28 -92 -94 l0 -59 53 28 c156 83 297 48
297 -75 0 -79 -64 -134 -157 -135 l-43 0 0 -44 0 -45 58 -6 c120 -12 167 -63
158 -169 -5 -62 -22 -95 -70 -130 -22 -17 -42 -21 -104 -21 -66 0 -87 5 -146
33 -37 17 -70 32 -72 32 -11 0 -3 -109 9 -117 34 -28 126 -48 217 -48 86 0
100 3 148 29 89 50 132 124 132 231 0 101 -52 180 -132 200 -37 10 -35 17 13
39 22 10 54 36 69 58 71 98 38 226 -74 285 -43 23 -194 28 -264 8z"/>
<path d="M6480 4220 l0 -50 215 0 c118 0 215 -3 215 -6 0 -6 -268 -525 -342
-662 l-39 -73 63 3 62 3 178 350 c177 350 178 350 178 418 l0 67 -265 0 -265
0 0 -50z"/>
<path d="M8670 3744 l0 -307 130 6 c150 6 202 24 248 85 23 30 27 45 27 101 0
74 -17 108 -72 137 l-31 18 24 19 c75 59 71 181 -9 224 -25 14 -63 18 -174 21
l-143 4 0 -308z m254 226 c34 -13 50 -49 42 -94 -10 -51 -40 -67 -136 -73
l-80 -6 0 92 0 91 74 0 c41 0 86 -4 100 -10z m-10 -240 c59 -13 81 -41 81
-100 0 -84 -55 -118 -192 -120 l-53 0 0 115 0 115 63 0 c34 0 80 -5 101 -10z"/>
<path d="M9150 3723 c0 -194 7 -226 61 -266 46 -33 97 -33 162 2 l57 30 0 -25
c0 -21 5 -24 35 -24 l35 0 0 230 0 230 -35 0 -35 0 0 -170 0 -169 -37 -26
c-27 -18 -51 -25 -85 -25 -75 0 -82 17 -86 222 l-4 168 -34 0 -34 0 0 -177z"/>
<path d="M9580 3870 l0 -29 115 -3 115 -3 -121 -170 c-89 -126 -119 -176 -117
-195 l3 -25 165 0 165 0 3 32 3 32 -121 3 -121 3 115 163 c85 119 116 171 116
193 l0 29 -160 0 -160 0 0 -30z"/>
<path d="M9960 3870 l0 -30 110 0 c61 0 110 -3 110 -7 -1 -5 -52 -80 -115
-168 -89 -124 -115 -167 -115 -192 l0 -33 165 0 165 0 0 35 0 34 -119 3 -118
3 118 165 c81 113 119 174 119 193 l0 27 -160 0 -160 0 0 -30z"/>
<path d="M10380 3499 l0 -60 48 3 47 3 3 58 3 57 -51 0 -50 0 0 -61z"/>
<path d="M10630 3499 l0 -60 48 3 47 3 3 58 3 57 -51 0 -50 0 0 -61z"/>
<path d="M10880 3499 l0 -60 48 3 47 3 3 58 3 57 -51 0 -50 0 0 -61z"/>
</g>
</svg>
