<?xml version="1.0" standalone="no"?>
<!DOCTYPE svg PUBLIC "-//W3C//DTD SVG 20010904//EN"
 "http://www.w3.org/TR/2001/REC-SVG-20010904/DTD/svg10.dtd">
<svg version="1.0" xmlns="http://www.w3.org/2000/svg"
 width="525.000000pt" height="405.000000pt" viewBox="0 0 525.000000 405.000000"
 preserveAspectRatio="xMidYMid meet">

<g transform="translate(0.000000,405.000000) scale(0.100000,-0.100000)"
fill="#000000" stroke="none">
<path d="M4062 3785 l-32 -65 -555 0 c-548 0 -555 0 -555 -20 0 -20 -7 -20
-1160 -20 l-1160 0 0 35 c0 30 -4 35 -22 35 -17 1 -28 12 -43 43 -19 40 -22
42 -60 39 -65 -5 -126 -42 -165 -100 l-34 -52 -73 0 -72 0 -17 -57 c-19 -65
-15 -193 7 -258 l14 -40 85 -5 85 -5 3 -257 2 -258 174 0 173 0 12 -39 11 -40
523 -3 c500 -4 525 -5 600 -26 169 -47 293 -144 360 -282 49 -99 68 -197 66
-333 -2 -128 -15 -112 151 -178 287 -113 562 -136 787 -64 90 29 192 33 246
10 49 -20 103 -69 132 -120 18 -30 55 -174 136 -526 l110 -484 -6 -200 c-7
-195 -7 -200 14 -219 21 -19 28 -19 518 27 l496 46 39 -34 c31 -29 46 -35 82
-35 73 0 136 69 136 149 0 16 5 31 11 33 14 5 28 122 29 238 0 148 -23 263
-89 439 -32 86 -139 372 -236 636 -159 428 -178 488 -183 555 -6 101 19 160
97 232 66 60 142 98 257 129 46 12 92 30 104 41 45 42 7 118 -59 118 -103 0
-182 94 -275 326 -42 106 -43 135 -15 274 24 117 20 160 -18 190 -35 27 -69
25 -114 -6 -49 -33 -100 -35 -136 -6 -46 37 -112 64 -172 69 l-56 6 -29 63
c-27 59 -31 64 -60 64 -29 0 -34 -6 -64 -65z m612 -151 c31 -30 14 -84 -25
-84 -17 0 -49 35 -49 52 0 11 38 48 49 48 5 0 17 -7 25 -16z m-1788 -1101 c25
-85 16 -213 -19 -285 -35 -72 -95 -139 -169 -189 -48 -33 -57 -43 -47 -55 27
-33 113 0 193 76 60 56 138 164 180 249 25 49 27 60 21 126 l-7 72 43 32 c38
28 50 32 87 27 162 -21 258 -143 269 -341 5 -78 2 -98 -16 -141 -34 -79 -84
-121 -182 -154 -150 -50 -241 -65 -399 -64 -125 1 -159 5 -243 28 -119 32
-161 52 -209 103 -54 56 -81 123 -86 219 -8 140 39 244 134 300 73 43 126 53
286 53 l147 1 17 -57z m2134 -2087 c0 -47 -41 -96 -82 -96 -43 0 -88 48 -88
94 l0 36 85 0 85 0 0 -34z"/>
</g>
</svg>
