<?xml version="1.0" standalone="no"?>
<!DOCTYPE svg PUBLIC "-//W3C//DTD SVG 20010904//EN"
 "http://www.w3.org/TR/2001/REC-SVG-20010904/DTD/svg10.dtd">
<svg version="1.0" xmlns="http://www.w3.org/2000/svg"
 width="320.000000pt" height="292.000000pt" viewBox="0 0 320.000000 292.000000"
 preserveAspectRatio="xMidYMid meet">

<g transform="translate(0.000000,292.000000) scale(0.100000,-0.100000)"
fill="#000000" stroke="none">
<path d="M2035 2815 c-22 -8 -101 -32 -175 -55 -175 -53 -191 -59 -217 -83
-15 -13 -30 -18 -47 -13 -32 8 -392 -100 -425 -127 -7 -6 -23 -11 -35 -9 -33
4 -388 -106 -403 -126 -13 -17 -31 -46 -132 -211 -28 -46 -51 -92 -51 -103 0
-10 -4 -18 -9 -18 -10 0 -135 -190 -188 -286 -19 -35 -32 -71 -29 -80 3 -8 -1
-17 -8 -20 -18 -7 -138 -185 -177 -263 -56 -112 -55 -118 56 -256 52 -66 121
-146 152 -178 64 -65 52 -64 196 -30 l67 16 65 -68 c36 -37 65 -72 65 -78 0
-23 203 -274 247 -305 16 -10 93 -49 173 -85 80 -36 222 -102 315 -147 232
-112 421 -190 461 -190 29 0 47 14 157 127 205 211 236 247 237 270 0 15 11
27 35 39 46 21 336 333 351 376 7 18 16 33 20 33 37 3 129 92 334 329 l34 38
-37 72 c-46 88 -205 316 -221 316 -6 0 -21 20 -32 44 -34 69 -185 304 -224
347 -32 37 -40 40 -110 49 -41 5 -96 10 -122 10 -26 0 -50 4 -53 10 -3 5 17
63 46 129 l52 120 -28 53 c-48 92 -176 288 -215 329 -40 43 -59 46 -125 24z
m5 -41 c0 -24 -96 -227 -113 -239 -47 -33 -362 -122 -372 -105 -4 7 64 168 93
219 5 8 87 40 183 72 169 55 209 66 209 53z m192 -131 c123 -186 141 -218 132
-245 -22 -72 -98 -228 -110 -228 -14 0 -234 323 -234 342 0 25 108 258 120
258 4 0 45 -57 92 -127z m-702 -34 c0 -6 -22 -57 -49 -114 -37 -77 -58 -109
-80 -123 -38 -23 -293 -95 -322 -90 -20 3 -18 9 31 105 28 56 60 109 69 117
16 15 307 114 339 115 6 1 12 -4 12 -10z m-440 -131 c0 -7 -29 -62 -63 -123
-63 -108 -64 -110 -116 -128 -82 -27 -283 -78 -289 -73 -6 6 47 101 99 178
l39 57 148 46 c81 25 152 48 157 50 19 7 25 5 25 -7z m790 -54 c0 -14 -82
-212 -100 -242 -12 -20 -37 -40 -64 -52 -54 -23 -307 -90 -341 -90 l-24 0 18
43 c10 23 39 86 65 138 l47 96 112 36 c243 78 287 88 287 71z m230 -158 c53
-78 103 -152 110 -165 18 -35 8 -83 -45 -209 -36 -85 -52 -112 -64 -110 -21 4
-251 325 -251 351 0 20 67 193 101 259 17 34 22 38 35 27 9 -7 60 -76 114
-153z m-730 19 c0 -17 -125 -276 -139 -288 -20 -18 -88 -40 -221 -71 -153 -36
-170 -38 -170 -29 0 12 76 158 116 225 40 65 46 68 256 128 136 39 158 44 158
35z m-490 -145 c0 -16 -67 -146 -111 -216 -24 -37 -50 -66 -67 -73 -46 -18
-313 -84 -318 -78 -6 5 85 168 134 241 34 51 48 58 202 100 135 38 160 41 160
26z m830 -104 c0 -18 -52 -161 -87 -238 -23 -53 -30 -59 -78 -77 -29 -11 -120
-36 -202 -56 -196 -48 -193 -47 -193 -34 0 9 135 297 143 306 6 5 383 112 400
112 9 1 17 -5 17 -13z m198 -133 c133 -185 152 -215 152 -235 0 -33 -129 -303
-145 -303 -10 0 -142 171 -216 280 -43 64 -44 72 -10 150 10 22 37 86 61 143
23 56 46 102 50 102 5 0 53 -62 108 -137z m770 -23 c56 -85 102 -160 102 -167
0 -6 -32 -47 -72 -90 -39 -43 -101 -111 -137 -150 -36 -40 -73 -73 -82 -73
-23 0 -239 291 -239 322 0 24 289 320 309 316 9 -2 62 -73 119 -158z m-1508 0
c0 -16 -106 -237 -130 -270 -23 -33 -67 -48 -267 -94 -122 -29 -143 -31 -143
-16 0 10 137 290 146 300 9 9 338 89 367 90 15 0 27 -4 27 -10z m-505 -120 c3
-5 -19 -55 -50 -111 -78 -142 -102 -176 -126 -190 -44 -23 -314 -87 -325 -76
-7 7 5 30 95 175 l76 123 70 21 c104 31 228 65 242 67 6 0 15 -3 18 -9z m923
-143 c45 -48 232 -313 232 -329 0 -9 -4 -19 -8 -22 -11 -7 -237 -54 -326 -69
l-69 -11 -55 59 c-77 85 -207 262 -207 282 0 19 22 27 230 77 171 41 176 42
203 13z m1376 -146 c47 -74 86 -140 86 -148 0 -12 -258 -304 -282 -319 -14 -9
-36 15 -122 136 -104 145 -113 163 -97 192 6 13 75 88 151 168 164 171 134
174 264 -29z m-737 84 c82 -108 163 -231 163 -249 0 -32 -295 -340 -315 -329
-14 8 -155 179 -182 220 -14 21 -12 26 24 70 23 28 56 88 78 143 20 52 44 109
52 125 20 41 84 96 107 93 11 -2 44 -34 73 -73z m-1101 -163 c121 -148 176
-224 166 -234 -11 -11 -321 -78 -361 -78 -32 0 -44 13 -215 215 -73 87 -85
108 -68 119 9 5 301 72 342 78 40 6 61 -9 136 -100z m-528 -84 c93 -112 182
-232 182 -246 0 -11 -51 -24 -249 -64 l-113 -23 -48 52 c-81 88 -210 253 -210
268 0 8 12 18 28 22 15 3 83 21 152 39 185 48 176 49 258 -48z m1969 -243 c57
-77 103 -146 103 -152 0 -24 -282 -323 -305 -323 -24 0 -225 263 -225 295 0
26 288 327 310 323 8 -2 61 -66 117 -143z m-764 50 c97 -115 177 -226 177
-244 0 -10 -72 -92 -159 -182 l-159 -164 -32 30 c-56 53 -230 275 -230 294 0
25 313 345 331 339 8 -2 40 -35 72 -73z m-883 -122 c56 -24 70 -37 177 -167
64 -78 121 -147 127 -155 16 -20 -18 -8 -141 51 -101 49 -104 52 -198 163 -52
62 -95 117 -95 124 0 20 67 12 130 -16z m-96 -85 c102 -124 101 -128 -17 -74
-54 24 -84 46 -113 80 -46 55 -48 68 -14 77 58 16 66 11 144 -83z m365 -25
l115 -48 123 -141 c137 -155 159 -184 144 -184 -5 0 -67 27 -138 59 l-128 60
-113 133 c-113 133 -139 168 -125 168 4 0 59 -21 122 -47z m963 -185 c118
-145 140 -176 136 -193 -4 -21 -300 -335 -315 -335 -13 0 -178 184 -219 244
-29 43 -27 57 21 111 79 88 269 275 281 275 7 0 50 -46 96 -102z m-1251 55
c77 -31 98 -45 134 -88 76 -90 155 -200 147 -203 -5 -1 -51 17 -103 42 -93 44
-95 45 -186 160 -51 63 -93 117 -93 120 0 10 7 8 101 -31z m396 -184 c37 -23
220 -252 206 -256 -20 -7 -219 96 -249 128 -49 53 -184 222 -184 231 0 8 175
-71 227 -103z m236 -99 l107 -42 103 -121 c129 -153 131 -156 124 -163 -3 -3
-65 23 -139 59 -120 58 -139 71 -189 128 -116 134 -161 200 -126 186 6 -2 60
-23 120 -47z"/>
</g>
</svg>
