<?xml version="1.0" standalone="no"?>
<!DOCTYPE svg PUBLIC "-//W3C//DTD SVG 20010904//EN"
 "http://www.w3.org/TR/2001/REC-SVG-20010904/DTD/svg10.dtd">
<svg version="1.0" xmlns="http://www.w3.org/2000/svg"
 width="980.000000pt" height="866.000000pt" viewBox="0 0 980.000000 866.000000"
 preserveAspectRatio="xMidYMid meet">

<g transform="translate(0.000000,866.000000) scale(0.100000,-0.100000)"
fill="#000000" stroke="none">
<path d="M4841 8650 c-39 -9 -77 -36 -103 -71 -30 -40 -37 -192 -37 -784 0
-745 4 -780 95 -833 33 -19 51 -22 116 -20 82 3 111 17 151 70 33 45 38 159
35 844 l-3 659 -25 49 c-17 34 -36 56 -60 67 -43 22 -123 31 -169 19z"/>
<path d="M1675 7501 c-86 -50 -119 -92 -130 -167 -5 -33 -1 -48 30 -99 54 -89
151 -214 387 -497 340 -408 546 -632 592 -644 61 -15 152 22 209 85 84 93 43
180 -257 546 -480 586 -690 805 -768 805 -7 0 -35 -13 -63 -29z"/>
<path d="M7995 7510 c-74 -31 -790 -870 -948 -1110 -46 -70 -49 -78 -45 -127
8 -94 77 -163 173 -171 79 -7 127 21 236 136 225 238 647 749 788 956 66 97
75 134 47 199 -35 84 -175 150 -251 117z"/>
<path d="M4660 6360 c-233 -13 -515 -80 -784 -187 -653 -258 -1162 -719 -1478
-1338 -233 -459 -318 -842 -305 -1389 4 -191 10 -257 32 -384 15 -84 26 -154
24 -156 -2 -1 -76 -20 -164 -41 -286 -68 -587 -167 -634 -209 -75 -67 -65
-204 20 -284 71 -67 81 -66 569 53 454 110 627 145 1010 204 671 104 1003 125
1975 125 849 0 1086 -11 1585 -75 491 -63 867 -134 1403 -265 193 -48 372 -86
402 -87 45 -1 62 4 97 28 85 60 114 183 65 270 -19 35 -33 44 -103 72 -111 45
-305 105 -514 159 -210 55 -214 57 -206 92 51 213 76 563 58 796 -55 694 -338
1312 -827 1801 -356 357 -815 619 -1292 740 -241 61 -626 92 -933 75z m451
-410 c220 -22 397 -62 598 -136 134 -49 439 -201 543 -271 540 -362 928 -986
1035 -1663 27 -174 25 -489 -6 -679 -23 -147 -38 -194 -66 -205 -8 -3 -75 6
-148 19 -386 73 -902 122 -1542 146 -345 13 -1220 7 -1530 -11 -521 -29 -1079
-92 -1344 -151 -89 -20 -100 -1 -132 222 -29 197 -31 469 -5 639 107 713 485
1311 1076 1703 126 84 385 212 530 262 318 110 680 156 991 125z"/>
<path d="M147 4576 c-180 -65 -197 -299 -27 -369 119 -49 1075 -219 1245 -221
77 -1 95 2 126 22 20 12 44 38 54 58 22 47 30 133 16 176 -34 102 -120 130
-766 243 -176 31 -379 67 -451 81 -150 28 -147 27 -197 10z"/>
<path d="M9505 4569 c-437 -66 -976 -167 -1094 -204 -145 -47 -174 -78 -175
-188 0 -108 38 -164 128 -188 49 -13 106 -8 366 32 478 75 904 160 971 195
102 52 129 191 56 286 -58 75 -108 88 -252 67z"/>
<path d="M4093 2221 c-59 -6 -80 -13 -110 -37 -120 -95 -106 -270 27 -342 l45
-24 450 5 c841 10 1404 -17 2265 -108 484 -51 505 -52 559 -23 68 36 94 92 88
186 -5 89 -22 117 -96 153 -71 35 -165 55 -396 84 -457 58 -708 75 -1375 95
-446 13 -1369 20 -1457 11z"/>
<path d="M3110 2144 c-19 -2 -114 -14 -210 -25 -302 -36 -418 -66 -471 -125
-68 -75 -65 -210 5 -272 70 -61 106 -63 466 -21 338 39 408 56 461 117 66 75
75 157 25 232 -42 64 -94 92 -174 95 -37 2 -83 1 -102 -1z"/>
<path d="M4000 1280 c-146 -4 -384 -16 -530 -25 -286 -18 -323 -26 -383 -83
-37 -34 -67 -93 -67 -129 0 -39 41 -120 87 -172 l39 -44 494 22 c727 31 1312
44 1686 36 l331 -6 47 52 c51 56 86 117 86 146 0 33 -47 117 -84 152 -29 28
-48 37 -94 43 -85 11 -1305 18 -1612 8z"/>
<path d="M6387 1227 c-72 -17 -106 -41 -135 -98 -52 -98 4 -243 107 -278 19
-6 88 -11 155 -11 145 0 175 11 223 83 39 59 49 106 34 159 -14 45 -71 112
-115 135 -41 21 -193 27 -269 10z"/>
<path d="M4030 401 c-173 -25 -254 -172 -173 -313 31 -56 90 -77 228 -84 161
-8 238 5 282 48 70 68 90 155 54 227 -22 42 -80 97 -118 112 -34 13 -207 19
-273 10z"/>
<path d="M5139 401 c-113 -9 -151 -28 -199 -99 -28 -42 -31 -53 -28 -108 3
-54 9 -68 52 -128 l49 -69 401 6 c266 4 415 9 444 17 67 19 122 98 122 175 0
82 -63 166 -143 190 -59 17 -536 29 -698 16z"/>
</g>
</svg>
